<svg xmlns="http://www.w3.org/2000/svg" xmlns:xlink="http://www.w3.org/1999/xlink" version="1.1" x="0px" y="0px" viewBox="-255 347 100 125" style="enable-background:new -255 347 100 100;" xml:space="preserve"><g><g><path d="M-206.5,387.5c-3.6,0-7.5-0.1-11.3-0.6c-3.8-0.4-5.9-6.7-5.9-9.8c0-7.7,8.4-14,18.8-14s18.8,6.3,18.8,14    c0,3.4-1.6,6.6-4.5,9.1c-0.3,0.3-0.8,0.5-1.2,0.5C-192.3,386.8-198.6,387.5-206.5,387.5z M-217.2,382.5c10.1,1.1,21.1,0.2,24-0.1    c1.2-1.2,2.4-3,2.4-5.3c0-5.2-6.5-9.5-14.3-9.5s-14.3,4.4-14.3,9.5C-219.3,379.3-217.9,382-217.2,382.5z"/></g><g><path d="M-204.7,436.8h-0.6c-9.6,0-15.7-0.5-17.2-1.4c-0.7-0.4-1.1-1.1-1.1-1.9v-7.6c0-2.2,0.9-3.4,1.6-4    c-3.6-8.8,0.5-14.7,1.3-15.8c5.4-9,5.6-13.9,4.8-16.5c-0.6-2.1-2-2.7-2-2.8c-1.1-0.5-1.6-1.8-1.1-3c0.5-1.1,1.8-1.6,2.9-1.2    c0.3,0.1,3.2,1.4,4.5,5.3c1.7,5.1-0.1,12-5.3,20.5c-0.1,0.1-0.1,0.2-0.2,0.3c-0.2,0.2-4.2,5.3,0.3,13.4c0.4,0.8,0.4,1.7-0.2,2.5    c-0.5,0.6-1.3,1-2.1,0.9c0,0.1,0,0.2,0,0.3v5.8c1.7,0.2,5.6,0.6,13.8,0.6h0.6c8.1,0,12-0.4,13.8-0.6v-5.8c0-0.1,0-0.2,0-0.3    c-0.8,0.1-1.6-0.2-2.1-0.9c-0.5-0.7-0.6-1.7-0.2-2.5c4.4-8.1,0.4-13.2,0.2-13.4c-0.1-0.1-0.1-0.2-0.2-0.3    c-5.2-8.5-6.9-15.4-5.3-20.5c1.3-3.9,4.2-5.2,4.5-5.3c1.1-0.5,2.5,0.1,2.9,1.2c0.5,1.1-0.1,2.4-1.2,2.9c-0.1,0.1-1.4,0.7-2,2.8    c-0.8,2.6-0.6,7.5,4.8,16.5c0.8,1.1,4.9,7,1.3,15.8c0.8,0.6,1.6,1.8,1.6,4v7.6c0,0.8-0.4,1.5-1.1,1.9    C-189.1,436.3-195.2,436.8-204.7,436.8z"/></g><g><path d="M-205.1,426.2c-4.1,0-8.9-0.2-13.9-0.7c-1.2-0.1-2.1-1.2-2-2.5s1.2-2.2,2.5-2c14.1,1.4,27,0,27.1,0c1.2-0.2,2.3,0.8,2.5,2    c0.1,1.2-0.8,2.3-2,2.5C-191.3,425.5-197.1,426.2-205.1,426.2z"/></g><g><path d="M-202.6,363.3h-4.7c-1.2,0-2.2-1-2.2-2.2v-1.6c0-1.2,1-2.2,2.2-2.2h4.7c1.2,0,2.2,1,2.2,2.2v1.6    C-200.4,362.3-201.4,363.3-202.6,363.3z"/></g></g><text x="-255" y="462" fill="#000000" font-size="5px" font-weight="bold" font-family="'Helvetica Neue', Helvetica, Arial-Unicode, Arial, Sans-serif">Created by Joe Harrison</text><text x="-255" y="467" fill="#000000" font-size="5px" font-weight="bold" font-family="'Helvetica Neue', Helvetica, Arial-Unicode, Arial, Sans-serif">from the Noun Project</text></svg>